<?xml version="1.0" encoding="UTF-8" ?>
<!DOCTYPE svg PUBLIC "-//W3C//DTD SVG 1.1//EN" "http://www.w3.org/Graphics/SVG/1.1/DTD/svg11.dtd">
<svg width="234px" height="125px" viewBox="0 0 234 125" version="1.1" xmlns="http://www.w3.org/2000/svg">
<g id="#ff5800ff">
<path fill="#ff5800" opacity="1.00" d=" M 14.59 18.25 C 13.69 13.93 17.77 10.29 21.86 10.27 C 26.93 9.68 31.82 11.52 36.27 13.77 C 43.62 17.76 49.91 23.41 55.45 29.62 C 58.03 32.38 59.23 36.74 57.21 40.14 C 52.88 47.03 45.14 50.69 40.42 57.24 C 34.54 64.47 33.82 74.84 37.17 83.32 C 38.77 87.51 42.89 90.37 47.26 91.00 C 53.31 92.65 59.47 90.98 65.52 90.32 C 82.60 86.75 96.92 75.99 110.02 65.01 C 116.90 59.23 123.87 53.55 130.66 47.66 C 142.35 38.05 153.61 27.04 168.26 22.11 C 178.08 18.28 189.53 18.31 199.04 23.08 C 210.37 27.63 219.60 37.21 223.35 48.87 C 226.40 58.24 225.51 68.37 223.42 77.84 C 222.12 83.34 218.98 89.17 212.97 90.43 C 210.94 89.40 208.36 88.61 207.56 86.21 C 205.54 81.88 207.70 77.20 208.50 72.86 C 210.59 63.69 210.65 53.20 204.71 45.38 C 201.10 39.54 194.75 35.55 187.88 35.07 C 182.09 34.54 175.94 34.29 170.53 36.77 C 162.79 40.06 156.36 45.67 150.05 51.08 C 147.64 53.60 144.20 56.62 145.58 60.53 C 149.57 67.96 157.30 73.41 158.77 82.14 C 159.81 86.29 158.61 92.33 153.93 93.62 C 151.58 94.45 149.13 92.94 147.55 91.29 C 143.89 86.75 142.89 80.52 138.51 76.48 C 135.27 73.31 130.63 70.19 125.91 71.74 C 122.13 73.89 118.95 76.92 115.55 79.60 C 102.59 90.77 87.93 100.52 71.16 104.76 C 58.80 107.81 44.51 108.90 33.26 101.85 C 23.97 95.93 20.63 84.36 20.31 73.92 C 19.43 64.45 22.45 54.73 28.94 47.71 C 31.95 43.88 37.25 40.53 36.22 34.93 C 36.03 31.17 32.62 28.77 29.41 27.56 C 24.14 25.03 16.86 24.61 14.59 18.25 Z" />
</g>
</svg>
